GRF
version=1
nRows=15
nColumns=19
inDegrees=no
endheader
time	1_ground_force_vx	1_ground_force_vy	1_ground_force_vz	1_ground_force_px	1_ground_force_py	1_ground_force_pz	1_ground_torque_x	1_ground_torque_y	1_ground_torque_z	2_ground_force_vx	2_ground_force_vy	2_ground_force_vz	2_ground_force_px	2_ground_force_py	2_ground_force_pz	2_ground_torque_x	2_ground_torque_y	2_ground_torque_z
      0.80200000	    187.12375698	    775.22423835	      5.33859348	      0.34788667	      0.00000000	      0.19418333	     -0.00000000	     -3.85683467	     -0.00000000	      0.00000000	      0.00000000	      0.00000000	      0.00000000	      0.00000000	      0.00000000	      0.00000000	      0.00000000	      0.00000000
      0.80300000	    188.79351641	    782.53689258	      5.84043786	      0.34741948	      0.00000000	      0.19444507	     -0.00000000	     -3.94029374	     -0.00000000	      0.00000000	      0.00000000	      0.00000000	      0.00000000	      0.00000000	      0.00000000	      0.00000000	      0.00000000	      0.00000000
      0.80400000	    189.99868385	    788.68899163	      6.92812083	      0.34706309	      0.00000000	      0.19462924	     -0.00000000	     -3.93894363	     -0.00000000	      0.00000000	      0.00000000	      0.00000000	      0.00000000	      0.00000000	      0.00000000	      0.00000000	      0.00000000	      0.00000000
      0.80500000	    190.80281031	    794.09995232	      7.71803544	      0.34694852	      0.00000000	      0.19466826	     -0.00000000	     -3.92371772	     -0.00000000	      0.00000000	      0.00000000	      0.00000000	      0.00000000	      0.00000000	      0.00000000	      0.00000000	      0.00000000	      0.00000000
      0.80600000	    191.77466772	    800.58252687	      8.07781417	      0.34661985	      0.00000000	      0.19467948	     -0.00000000	     -3.93358978	     -0.00000000	      0.00000000	      0.00000000	      0.00000000	      0.00000000	      0.00000000	      0.00000000	      0.00000000	      0.00000000	      0.00000000
      0.80700000	    193.30062824	    807.94936729	      8.39268939	      0.34604344	      0.00000000	      0.19482567	      0.00000000	     -3.96225267	     -0.00000000	      0.00000000	      0.00000000	      0.00000000	      0.00000000	      0.00000000	      0.00000000	      0.00000000	      0.00000000	      0.00000000
      0.80800000	    194.71962940	    814.99840227	      8.62007994	      0.34565496	      0.00000000	      0.19500042	      0.00000000	     -4.03814680	     -0.00000000	      0.00000000	      0.00000000	      0.00000000	      0.00000000	      0.00000000	      0.00000000	      0.00000000	      0.00000000	      0.00000000
      0.80900000	    195.52850625	    820.41888034	      8.65998336	      0.34555033	      0.00000000	      0.19499548	      0.00000000	     -4.09860645	     -0.00000000	      0.00000000	      0.00000000	      0.00000000	      0.00000000	      0.00000000	      0.00000000	      0.00000000	      0.00000000	      0.00000000
      0.81000000	    196.13074161	    825.22532729	      9.15701655	      0.34553024	      0.00000000	      0.19492604	     -0.00000000	     -4.05567105	     -0.00000000	      0.00000000	      0.00000000	      0.00000000	      0.00000000	      0.00000000	      0.00000000	      0.00000000	      0.00000000	      0.00000000
      0.81100000	    196.86508099	    830.78772294	     10.06835503	      0.34523778	      0.00000000	      0.19497219	     -0.00000000	     -3.98950247	     -0.00000000	      0.00000000	      0.00000000	      0.00000000	      0.00000000	      0.00000000	      0.00000000	      0.00000000	      0.00000000	      0.00000000
      0.81200000	    197.19289229	    836.48232316	     10.46470712	      0.34477875	      0.00000000	      0.19516340	      0.00000000	     -4.05255582	     -0.00000000	      0.00000000	      0.00000000	      0.00000000	      0.00000000	      0.00000000	      0.00000000	      0.00000000	      0.00000000	      0.00000000
      0.81300000	    197.20590472	    841.20824048	     10.11223056	      0.34460627	      0.00000000	      0.19525770	     -0.00000000	     -4.18388716	     -0.00000000	      0.00000000	      0.00000000	      0.00000000	      0.00000000	      0.00000000	      0.00000000	      0.00000000	      0.00000000	      0.00000000
      0.81400000	    197.39859961	    845.87267883	      9.62395126	      0.34455774	      0.00000000	      0.19528745	     -0.00000000	     -4.25983581	     -0.00000000	      0.00000000	      0.00000000	      0.00000000	      0.00000000	      0.00000000	      0.00000000	      0.00000000	      0.00000000	      0.00000000
      0.81500000	    197.79928032	    850.82832234	      9.52498408	      0.34432577	      0.00000000	      0.19538916	     -0.00000000	     -4.30585055	     -0.00000000	      0.00000000	      0.00000000	      0.00000000	      0.00000000	      0.00000000	      0.00000000	      0.00000000	      0.00000000	      0.00000000
      0.81600000	    198.07062874	    855.48909921	      9.35332923	      0.34404497	      0.00000000	      0.19553973	     -0.00000000	     -4.38614432	     -0.00000000	      0.00000000	      0.00000000	      0.00000000	      0.00000000	      0.00000000	      0.00000000	      0.00000000	      0.00000000	      0.00000000
